<svg width="100" height="100" viewBox="0 0 100 100" fill="none" xmlns="http://www.w3.org/2000/svg">
<g id="Group 24">
<g id="Group 36">
<rect id="Rectangle 132" width="100" height="100" rx="20" fill="white"/>
<path id="Vector" d="M37.3688 55.4031H62.6312C63.5916 55.4031 64.5199 55.0877 65.2469 54.5145C65.9738 53.9413 66.451 53.1484 66.5912 52.2805C66.7314 51.4126 66.5254 50.5276 66.0107 49.787C65.4961 49.0463 64.7071 48.4994 63.7876 48.2459V46.5464C63.7837 43.9867 62.8015 41.5086 61.0107 39.54C59.2198 37.5713 56.7326 36.2357 53.9787 35.7637C54.3175 35.1443 54.4774 34.456 54.4431 33.7642C54.4089 33.0725 54.1817 32.4002 53.7831 31.8112C53.3845 31.2222 52.8277 30.736 52.1656 30.3988C51.5035 30.0617 50.758 29.8847 50 29.8847C49.242 29.8847 48.4965 30.0617 47.8344 30.3988C47.1723 30.736 46.6155 31.2222 46.2169 31.8112C45.8183 32.4002 45.5911 33.0725 45.5569 33.7642C45.5226 34.456 45.6825 35.1443 46.0213 35.7637C43.2674 36.2357 40.7802 37.5713 38.9893 39.54C37.1985 41.5086 36.2163 43.9867 36.2124 46.5464V48.2459C35.2929 48.4994 34.5039 49.0463 33.9893 49.787C33.4746 50.5276 33.2686 51.4126 33.4088 52.2805C33.549 53.1484 34.0262 53.9413 34.7531 54.5145C35.4801 55.0877 36.4084 55.4031 37.3688 55.4031ZM50 32.3258C50.3518 32.3258 50.6958 32.4211 50.9883 32.5996C51.2809 32.7782 51.5089 33.032 51.6436 33.3289C51.7782 33.6259 51.8134 33.9526 51.7448 34.2679C51.6761 34.5831 51.5067 34.8727 51.2579 35.1C51.0091 35.3272 50.6921 35.482 50.3471 35.5447C50.002 35.6074 49.6443 35.5752 49.3192 35.4522C48.9942 35.3292 48.7163 35.1209 48.5208 34.8537C48.3254 34.5864 48.221 34.2723 48.221 33.9508C48.2216 33.52 48.4092 33.1069 48.7427 32.8023C49.0762 32.4976 49.5284 32.3262 50 32.3258ZM38.8811 46.5464C38.8839 44.2842 39.8689 42.1154 41.6199 40.5158C43.371 38.9162 45.7452 38.0164 48.2216 38.0138H51.7784C54.2548 38.0164 56.629 38.9162 58.3801 40.5158C60.1311 42.1154 61.1161 44.2842 61.1189 46.5464V48.0897H38.8811V46.5464ZM37.3688 50.5276H62.6312C62.8064 50.5276 62.9799 50.5591 63.1418 50.6204C63.3036 50.6816 63.4507 50.7714 63.5746 50.8846C63.6985 50.9978 63.7968 51.1321 63.8638 51.28C63.9309 51.4279 63.9654 51.5863 63.9654 51.7464C63.9654 51.9064 63.9309 52.0649 63.8638 52.2128C63.7968 52.3607 63.6985 52.495 63.5746 52.6082C63.4507 52.7214 63.3036 52.8111 63.1418 52.8724C62.9799 52.9336 62.8064 52.9652 62.6312 52.9652H37.3688C37.1936 52.9652 37.0201 52.9336 36.8582 52.8724C36.6964 52.8111 36.5493 52.7214 36.4254 52.6082C36.3015 52.495 36.2032 52.3607 36.1362 52.2128C36.0691 52.0649 36.0346 51.9064 36.0346 51.7464C36.0346 51.5863 36.0691 51.4279 36.1362 51.28C36.2032 51.1321 36.3015 50.9978 36.4254 50.8846C36.5493 50.7714 36.6964 50.6816 36.8582 50.6204C37.0201 50.5591 37.1936 50.5276 37.3688 50.5276ZM69.6595 81.7274H45.819C45.4651 81.7274 45.1257 81.8558 44.8755 82.0844C44.6252 82.313 44.4847 82.6231 44.4847 82.9463C44.4847 83.2696 44.6252 83.5797 44.8755 83.8083C45.1257 84.0369 45.4651 84.1653 45.819 84.1653H69.6595C70.0134 84.1653 70.3528 84.0369 70.603 83.8083C70.8533 83.5797 70.9939 83.2696 70.9939 82.9463C70.9939 82.6231 70.8533 82.313 70.603 82.0844C70.3528 81.8558 70.0134 81.7274 69.6595 81.7274ZM69.6595 60.4247H45.819C45.4651 60.4247 45.1257 60.5531 44.8755 60.7817C44.6252 61.0103 44.4847 61.3203 44.4847 61.6436C44.4847 61.9669 44.6252 62.277 44.8755 62.5055C45.1257 62.7341 45.4651 62.8626 45.819 62.8626H69.6595C70.0134 62.8626 70.3528 62.7341 70.603 62.5055C70.8533 62.277 70.9939 61.9669 70.9939 61.6436C70.9939 61.3203 70.8533 61.0103 70.603 60.7817C70.3528 60.5531 70.0134 60.4247 69.6595 60.4247ZM37.8129 74.9013H30.3405C30.1653 74.9013 29.9917 74.9328 29.8298 74.9941C29.6679 75.0554 29.5208 75.1451 29.3969 75.2583C29.273 75.3715 29.1747 75.5059 29.1077 75.6538C29.0406 75.8017 29.0061 75.9602 29.0061 76.1203V82.9463C29.0061 83.1064 29.0406 83.2649 29.1077 83.4128C29.1747 83.5607 29.273 83.6951 29.3969 83.8083C29.5208 83.9215 29.6679 84.0113 29.8298 84.0725C29.9917 84.1338 30.1653 84.1653 30.3405 84.1653H37.8129C37.9881 84.1653 38.1616 84.1338 38.3235 84.0725C38.4854 84.0113 38.6325 83.9215 38.7564 83.8083C38.8804 83.6951 38.9786 83.5607 39.0457 83.4128C39.1127 83.2649 39.1473 83.1064 39.1472 82.9463V76.1203C39.1473 75.9602 39.1127 75.8017 39.0457 75.6538C38.9786 75.5059 38.8804 75.3715 38.7564 75.2583C38.6325 75.1451 38.4854 75.0554 38.3235 74.9941C38.1616 74.9328 37.9881 74.9013 37.8129 74.9013ZM36.4785 81.7274H31.6748V77.3392H36.4785V81.7274ZM75.8865 22.8933H65.6564V11.8441C65.6564 11.3832 65.5338 10.9292 65.2991 10.5212C65.0644 10.1132 64.7246 9.7634 64.3091 9.50194C63.8936 9.24048 63.4148 9.07518 62.9138 9.02026C62.4129 8.96535 61.9048 9.02246 61.4334 9.18669L21.8588 22.9732C21.8532 22.9752 21.848 22.9778 21.8424 22.9798C21.8163 22.9893 21.7908 22.9999 21.7656 23.0108C21.7497 23.0176 21.7338 23.0242 21.7184 23.0315C21.6971 23.0416 21.6766 23.0527 21.656 23.0638C21.6376 23.0737 21.6192 23.0834 21.6015 23.094C21.5856 23.1037 21.5703 23.114 21.5548 23.1243C21.5344 23.1377 21.5139 23.1511 21.4945 23.1654C21.4822 23.1746 21.4706 23.1844 21.4586 23.1939C21.438 23.2104 21.4174 23.2268 21.398 23.2443C21.3869 23.2542 21.3766 23.2649 21.3659 23.2753C21.3475 23.2931 21.329 23.3108 21.3119 23.3296C21.3 23.3425 21.2892 23.3562 21.2779 23.3696C21.2636 23.3865 21.249 23.4034 21.2358 23.421C21.2227 23.4382 21.211 23.4562 21.199 23.474C21.189 23.4888 21.1787 23.5034 21.1694 23.5185C21.1566 23.5394 21.1453 23.5611 21.1339 23.5827C21.1268 23.596 21.1194 23.609 21.1128 23.6225C21.1021 23.6449 21.0929 23.6679 21.0835 23.6909C21.0779 23.7049 21.0718 23.7188 21.0667 23.733C21.059 23.7543 21.0528 23.7761 21.0464 23.798C21.0414 23.8152 21.0361 23.8323 21.0318 23.8498C21.0273 23.8684 21.024 23.8873 21.0205 23.9063C21.0164 23.928 21.0123 23.9497 21.0096 23.9717C21.0076 23.9873 21.0065 24.0031 21.0051 24.0189C21.003 24.0445 21.0013 24.0702 21.0009 24.096C21.0008 24.1014 21 24.1067 21 24.1122V90.26C21 90.4201 21.0345 90.5786 21.1015 90.7265C21.1686 90.8743 21.2669 91.0087 21.3908 91.1219C21.5147 91.2351 21.6618 91.3249 21.8237 91.3862C21.9856 91.4474 22.1591 91.4789 22.3344 91.4789H75.8865C76.712 91.4781 77.5033 91.1781 78.087 90.6449C78.6707 90.1117 78.9991 89.3888 79 88.6347V25.7374C78.9991 24.9834 78.6707 24.2605 78.087 23.7273C77.5033 23.194 76.712 22.8941 75.8865 22.8933ZM62.3845 11.4646C62.4518 11.4411 62.5244 11.4329 62.5959 11.4408C62.6675 11.4486 62.7359 11.4722 62.7953 11.5095C62.8546 11.5469 62.9032 11.5968 62.9367 11.6551C62.9702 11.7134 62.9877 11.7782 62.9877 11.8441V22.8933H29.5783L62.3845 11.4646ZM76.3313 88.6347C76.3312 88.7424 76.2843 88.8457 76.2009 88.9219C76.1175 88.9981 76.0044 89.0409 75.8865 89.041H23.6687V25.3311H75.8865C76.0044 25.3312 76.1175 25.3741 76.2009 25.4503C76.2843 25.5264 76.3312 25.6297 76.3313 25.7374V88.6347ZM69.6595 67.2507H45.819C45.4651 67.2507 45.1257 67.3792 44.8755 67.6078C44.6252 67.8364 44.4847 68.1464 44.4847 68.4697C44.4847 68.793 44.6252 69.103 44.8755 69.3316C45.1257 69.5602 45.4651 69.6886 45.819 69.6886H69.6595C70.0134 69.6886 70.3528 69.5602 70.603 69.3316C70.8533 69.103 70.9939 68.793 70.9939 68.4697C70.9939 68.1464 70.8533 67.8364 70.603 67.6078C70.3528 67.3792 70.0134 67.2507 69.6595 67.2507ZM37.8129 60.4247H30.3405C30.1653 60.4247 29.9917 60.4562 29.8298 60.5174C29.6679 60.5787 29.5208 60.6685 29.3969 60.7817C29.273 60.8949 29.1747 61.0292 29.1077 61.1771C29.0406 61.325 29.0061 61.4835 29.0061 61.6436V68.4697C29.0061 68.6298 29.0406 68.7883 29.1077 68.9362C29.1747 69.0841 29.273 69.2184 29.3969 69.3316C29.5208 69.4448 29.6679 69.5346 29.8298 69.5959C29.9917 69.6571 30.1653 69.6886 30.3405 69.6886H37.8129C37.9881 69.6886 38.1616 69.6571 38.3235 69.5959C38.4854 69.5346 38.6325 69.4448 38.7564 69.3316C38.8804 69.2184 38.9786 69.0841 39.0457 68.9362C39.1127 68.7883 39.1473 68.6298 39.1472 68.4697V61.6436C39.1473 61.4835 39.1127 61.325 39.0457 61.1771C38.9786 61.0292 38.8804 60.8949 38.7564 60.7817C38.6325 60.6685 38.4854 60.5787 38.3235 60.5174C38.1616 60.4562 37.9881 60.4247 37.8129 60.4247ZM36.4785 67.2507H31.6748V62.8626H36.4785V67.2507ZM69.6595 74.9013H45.819C45.4651 74.9013 45.1257 75.0298 44.8755 75.2584C44.6252 75.4869 44.4847 75.797 44.4847 76.1203C44.4847 76.4436 44.6252 76.7536 44.8755 76.9822C45.1257 77.2108 45.4651 77.3392 45.819 77.3392H69.6595C70.0134 77.3392 70.3528 77.2108 70.603 76.9822C70.8533 76.7536 70.9939 76.4436 70.9939 76.1203C70.9939 75.797 70.8533 75.4869 70.603 75.2584C70.3528 75.0298 70.0134 74.9013 69.6595 74.9013Z" fill="#FF6500"/>
</g>
</g>
</svg>
